<svg xmlns="http://www.w3.org/2000/svg" width="17" height="30" viewBox="0 0 17 30">
    <path fill="#009ACE" fill-rule="evenodd" d="M16.361.006L12.283 0c-4.58 0-7.542 2.898-7.542 7.383v3.405H.64c-.354 0-.641.272-.641.61v4.934c0 .337.287.61.64.61h4.1V29.39c0 .337.288.611.643.611h5.348c.354 0 .642-.274.642-.61V16.942h4.793c.355 0 .641-.274.641-.611l.003-4.933a.604.604 0 0 0-.189-.433.656.656 0 0 0-.453-.178h-4.795V7.902c0-1.387.346-2.091 2.24-2.091l2.747-.002c.354 0 .64-.274.64-.61V.618a.627.627 0 0 0-.639-.613z"/>
</svg>
