<svg xmlns="http://www.w3.org/2000/svg" width="46" height="34" viewBox="0 0 46 34">
    <g fill="#2F3031" fill-rule="nonzero">
        <path d="M41.877 33.304H3.672C1.648 33.304 0 31.647 0 29.608v-25.2C0 2.37 1.648.713 3.672.713h38.205c2.024 0 3.672 1.657 3.672 3.695v25.2c0 2.039-1.648 3.696-3.672 3.696zM3.672 2.19a2.213 2.213 0 0 0-2.203 2.217v25.2c0 1.223.988 2.217 2.203 2.217h38.205a2.213 2.213 0 0 0 2.203-2.217v-25.2a2.213 2.213 0 0 0-2.203-2.217H3.672z"/>
        <path d="M27.866 17.64a.738.738 0 0 0 .06.064l8.45 7.98a.73.73 0 0 0 1.038-.033.742.742 0 0 0-.031-1.044l-8.409-7.94L44.306 3.213a.744.744 0 0 0 .07-1.043.732.732 0 0 0-1.036-.071l-18.835 16.53c-.937.823-2.524.823-3.462 0L2.184 2.07a.736.736 0 0 0-1.037.071.744.744 0 0 0 .072 1.044l15.356 13.483-8.41 7.938a.742.742 0 0 0 .504 1.277c.18 0 .36-.066.502-.2l8.454-7.98c.021-.02.04-.04.059-.062l2.394 2.102c.743.652 1.72.978 2.696.978.977 0 1.952-.326 2.697-.98l2.395-2.101z"/>
    </g>
</svg>
