<svg xmlns="http://www.w3.org/2000/svg" width="18" height="30" viewBox="0 0 18 30">
    <path fill="#009ACE" fill-rule="evenodd" d="M7.524 21.13c-2.323-.242-4.418-.815-6.213-2.218-.223-.175-.453-.344-.655-.539-.785-.755-.865-1.618-.244-2.51.532-.762 1.424-.966 2.352-.529.18.086.351.192.515.305 3.343 2.298 7.934 2.363 11.292.103.332-.255.686-.463 1.099-.57.802-.205 1.548.09 1.977.791.493.8.485 1.583-.12 2.205-.928.952-2.044 1.643-3.284 2.125-1.173.454-2.456.682-3.729.835.194.21.283.312.403.432 1.727 1.736 3.46 3.464 5.18 5.205.586.594.709 1.329.387 2.02-.354.753-1.144 1.25-1.918 1.196-.49-.034-.874-.278-1.214-.621-1.303-1.312-2.63-2.6-3.906-3.936-.371-.39-.55-.316-.877.022-1.31 1.35-2.643 2.68-3.982 4-.602.595-1.317.702-2.015.363-.742-.359-1.214-1.117-1.177-1.878.024-.515.277-.91.631-1.262 1.708-1.707 3.411-3.419 5.116-5.128.113-.113.218-.234.382-.411zm1.416-5.945c-4.145-.013-7.545-3.453-7.52-7.61C1.441 3.374 4.843-.012 9.03 0c4.196.01 7.563 3.446 7.543 7.69-.022 4.148-3.445 7.51-7.633 7.495zm3.768-7.599a3.697 3.697 0 0 0-3.706-3.708 3.7 3.7 0 0 0-3.716 3.753A3.696 3.696 0 0 0 9.02 11.31a3.69 3.69 0 0 0 3.688-3.724z"/>
</svg>
