<svg xmlns="http://www.w3.org/2000/svg" width="27" height="38" viewBox="0 0 27 38">
    <path fill="#2F3031" fill-rule="nonzero" d="M13.611 8.29c-2.686 0-4.872 2.171-4.872 4.837s2.186 4.837 4.872 4.837 4.872-2.17 4.872-4.837c0-2.666-2.186-4.836-4.872-4.836zm9.314-4.41c4.665 4.631 5.245 13.344 1.24 18.644L13.488 37.832 2.795 22.502c-3.99-5.278-3.41-13.99 1.256-18.621A13.308 13.308 0 0 1 13.488 0c3.565 0 6.916 1.378 9.437 3.88zm-9.314 12.702c-1.919 0-3.48-1.55-3.48-3.455s1.561-3.454 3.48-3.454 3.48 1.55 3.48 3.454c0 1.905-1.561 3.455-3.48 3.455zm9.425 5.134c3.634-4.81 3.116-12.679-1.095-16.858a11.923 11.923 0 0 0-8.453-3.476 11.92 11.92 0 0 0-8.453 3.476C.825 9.038.306 16.905 3.925 21.695l9.563 13.71 9.548-13.689z"/>
</svg>
