<svg xmlns="http://www.w3.org/2000/svg" width="10" height="18" viewBox="0 0 10 18">
    <path fill="#2D57AE" fill-rule="evenodd" d="M9.624.004L7.225 0C4.531 0 2.79 1.739 2.79 4.43v2.043H.377A.372.372 0 0 0 0 6.839V9.8c0 .202.17.367.377.367h2.412v7.467c0 .202.169.367.377.367h3.146a.373.373 0 0 0 .378-.367v-7.467h2.82a.372.372 0 0 0 .376-.367l.002-2.96c0-.097-.04-.19-.11-.26a.382.382 0 0 0-.267-.106H6.69V4.74c0-.832.204-1.255 1.317-1.255h1.616A.372.372 0 0 0 10 3.118V.37a.372.372 0 0 0-.376-.367z"/>
</svg>
