<svg xmlns="http://www.w3.org/2000/svg" xmlns:xlink="http://www.w3.org/1999/xlink" width="110" height="62" viewBox="0 0 110 62">
    <defs>
        <path id="a" d="M103.759 26.736C102.528 11.926 79.784.114 51.917.114 24.075.114 1.347 11.904.08 26.697v2.608c1.268 14.793 23.996 26.583 51.838 26.583 27.867 0 50.611-11.811 51.842-26.622v-2.53z"/>
        <path id="c" d="M51.917.114c28.656 0 51.894 12.49 51.894 27.887 0 15.398-23.238 27.887-51.894 27.887-28.655 0-51.894-12.49-51.894-27.887S23.262.114 51.917.114"/>
    </defs>
    <g fill="none" fill-rule="evenodd">
        <path stroke="#00A3DB" stroke-width="5" d="M54.918 3.113c28.66 0 51.895 12.486 51.895 27.887 0 15.402-23.234 27.887-51.895 27.887-28.66 0-51.895-12.485-51.895-27.887 0-15.401 23.234-27.887 51.895-27.887z"/>
        <path fill="#00A3DB" d="M54.917 3.114c28.656 0 51.894 12.49 51.894 27.887 0 15.398-23.238 27.887-51.894 27.887-28.655 0-51.894-12.49-51.894-27.887S26.262 3.114 54.917 3.114"/>
        <g transform="translate(3 3)">
            <mask id="b" fill="#fff">
                <use xlink:href="#a"/>
            </mask>
            <path stroke="#FFF" d="M51.92-21.653c28.63 0 51.839 9.106 51.839 20.338 0 11.233-23.21 20.339-51.84 20.339C23.29 19.024.08 9.918.08-1.315c0-11.232 23.21-20.338 51.84-20.338zm0 58.636c28.63 0 51.839 9.107 51.839 20.34 0 11.231-23.21 20.338-51.84 20.338C23.29 77.66.08 68.554.08 57.322s23.21-20.339 51.84-20.339z" mask="url(#b)"/>
            <mask id="d" fill="#fff">
                <use xlink:href="#c"/>
            </mask>
            <path stroke="#FFF" d="M-11.041 28h119.407M51.916.115c21.108 0 38.219 12.486 38.219 27.887 0 15.4-17.111 27.886-38.219 27.886-21.107 0-38.218-12.485-38.218-27.886S30.808.115 51.916.115z" mask="url(#d)"/>
            <path stroke="#FFF" d="M51.916.115c13.25 0 23.992 12.486 23.992 27.887 0 15.4-10.741 27.886-23.992 27.886-13.25 0-23.991-12.485-23.991-27.886S38.666.115 51.916.115z" mask="url(#d)"/>
            <path stroke="#FFF" d="M51.916.113c4.734 0 8.572 12.486 8.572 27.887 0 15.402-3.838 27.888-8.572 27.888-4.734 0-8.572-12.486-8.572-27.888C43.344 12.6 47.182.113 51.916.113z" mask="url(#d)"/>
        </g>
        <path fill="#00A3DB" d="M43.851 35.287h4.896v-5.742h-4.896zM33.507 32.136h4.896v-1.832h-4.896zM49.292 32.67h8.455v-3.517h-8.455zM72.992 32.5h4.896v-3.517h-4.896z"/>
        <path stroke="#FFF" d="M74.164 31.625h-2.12c.027-.823.302-1.519.83-2.085.526-.567 1.414-.85 2.663-.85.973 0 1.713.163 2.217.489.506.326.828.708.971 1.144.144.436.214.909.214 1.417l-.044 3.721c0 .506.025.875.073 1.11.05.235.173.377.368.43v.145h-2.341l-.19-.802h-.042c-.54.738-1.368 1.106-2.482 1.106-.979 0-1.655-.24-2.027-.721a2.594 2.594 0 0 1-.56-1.636c0-.853.267-1.468.8-1.843.536-.371 1.344-.63 2.43-.775.59-.075.99-.133 1.197-.176.207-.04.355-.11.445-.203.09-.094.141-.252.154-.47v-.223c0-.23-.076-.468-.224-.71-.151-.244-.475-.367-.974-.367-.319 0-.625.083-.918.246-.294.163-.44.513-.44 1.053zm2.57 2.152v-.513c-.224.11-.39.184-.496.224-.107.038-.23.07-.365.097-.137.024-.336.061-.601.11-.867.154-1.3.545-1.3 1.17 0 .326.117.564.35.72.231.152.497.23.791.23.193 0 .414-.06.665-.174.25-.118.472-.327.667-.629.192-.304.29-.713.29-1.235zm-11.171-3.144v-1.636h1.343v-2.435h2.22v2.435h1.577v1.636h-1.577v3.914c0 .38.049.658.144.84.097.179.34.27.73.27.24 0 .474-.048.703-.145v1.634c-.667.15-1.27.224-1.81.224-.517 0-.92-.088-1.21-.264a1.396 1.396 0 0 1-.606-.779c-.115-.344-.17-.788-.17-1.33v-4.364h-1.344zm-5.637 0v-1.636h1.343v-2.435h2.22v2.435h1.577v1.636H63.49v3.914c0 .38.049.658.144.84.097.179.34.27.73.27.24 0 .475-.048.703-.145v1.634c-.667.15-1.27.224-1.81.224-.516 0-.92-.088-1.21-.264a1.396 1.396 0 0 1-.606-.779c-.114-.344-.17-.788-.17-1.33v-4.364h-1.344zm-3.169 4.155h2.25c-.451 1.775-1.736 2.662-3.856 2.662-.609 0-1.161-.09-1.653-.272a3.254 3.254 0 0 1-1.258-.821c-.348-.363-.613-.823-.796-1.374-.185-.55-.277-1.193-.277-1.928 0-.866.163-1.628.489-2.283.323-.657.8-1.168 1.429-1.534.627-.366 1.374-.548 2.241-.548 1.465 0 2.46.47 2.986 1.409.526.938.806 1.975.84 3.114l.015.45h-5.693c.01.569.158 1.071.443 1.502.287.433.732.65 1.336.65.365 0 .686-.092.964-.276a1.26 1.26 0 0 0 .54-.751zM53.474 32.3h3.385c-.019-.796-.19-1.325-.513-1.585-.324-.259-.672-.39-1.047-.39-.623 0-1.07.203-1.343.612-.27.41-.43.864-.482 1.363zM42.17 28.997h2.09l-.017.976h.047c.616-.855 1.414-1.283 2.395-1.283.99 0 1.735.302 2.236.903.502.604.816 1.227.945 1.87.129.64.192 1.183.192 1.624 0 .91-.148 1.695-.448 2.358-.297.663-.705 1.163-1.226 1.5-.519.337-1.1.505-1.746.505-.287 0-.57-.042-.849-.125a2.639 2.639 0 0 1-.781-.383 2.55 2.55 0 0 1-.618-.63v3.801h-2.22V28.997zm2.12 4.058c0 .83.146 1.495.435 2 .293.505.726.76 1.3.76.728 0 1.197-.313 1.41-.942a5.686 5.686 0 0 0 .316-1.818c0-.965-.17-1.662-.509-2.087-.34-.428-.747-.642-1.217-.642-.421 0-.815.195-1.183.583-.367.387-.552 1.104-.552 2.146zm-9.659-8.048h2.637l4.155 12.139H38.66l-.713-2.275H33.94l-.694 2.275h-2.747l4.133-12.14zm-.12 7.803h2.87l-1.424-4.633-1.447 4.633z"/>
        <path fill="#D9222A" d="M74.164 31.625h-2.12c.027-.823.302-1.519.83-2.085.526-.567 1.414-.85 2.663-.85.973 0 1.713.163 2.217.489.506.326.828.708.971 1.144.144.436.214.909.214 1.417l-.044 3.721c0 .506.025.875.073 1.11.05.235.173.377.368.43v.145h-2.341l-.19-.802h-.042c-.54.738-1.368 1.106-2.482 1.106-.979 0-1.655-.24-2.027-.721a2.594 2.594 0 0 1-.56-1.636c0-.853.267-1.468.8-1.843.536-.371 1.344-.63 2.43-.775.59-.075.99-.133 1.197-.176.207-.04.355-.11.445-.203.09-.094.141-.252.154-.47v-.223c0-.23-.076-.468-.224-.71-.151-.244-.475-.367-.974-.367-.319 0-.625.083-.918.246-.294.163-.44.513-.44 1.053zm2.57 2.152v-.513c-.224.11-.39.184-.496.224-.107.038-.23.07-.365.097-.137.024-.336.061-.601.11-.867.154-1.3.545-1.3 1.17 0 .326.117.564.35.72.231.152.497.23.791.23.193 0 .414-.06.665-.174.25-.118.472-.327.667-.629.192-.304.29-.713.29-1.235zm-11.171-3.144v-1.636h1.343v-2.435h2.22v2.435h1.577v1.636h-1.577v3.914c0 .38.049.658.144.84.097.179.34.27.73.27.24 0 .474-.048.703-.145v1.634c-.667.15-1.27.224-1.81.224-.517 0-.92-.088-1.21-.264a1.396 1.396 0 0 1-.606-.779c-.115-.344-.17-.788-.17-1.33v-4.364h-1.344zm-5.637 0v-1.636h1.343v-2.435h2.22v2.435h1.577v1.636H63.49v3.914c0 .38.049.658.144.84.097.179.34.27.73.27.24 0 .475-.048.703-.145v1.634c-.667.15-1.27.224-1.81.224-.516 0-.92-.088-1.21-.264a1.396 1.396 0 0 1-.606-.779c-.114-.344-.17-.788-.17-1.33v-4.364h-1.344zm-3.169 4.155h2.25c-.451 1.775-1.736 2.662-3.856 2.662-.609 0-1.161-.09-1.653-.272a3.254 3.254 0 0 1-1.258-.821c-.348-.363-.613-.823-.796-1.374-.185-.55-.277-1.193-.277-1.928 0-.866.163-1.628.489-2.283.323-.657.8-1.168 1.429-1.534.627-.366 1.374-.548 2.241-.548 1.465 0 2.46.47 2.986 1.409.526.938.806 1.975.84 3.114l.015.45h-5.693c.01.569.158 1.071.443 1.502.287.433.732.65 1.336.65.365 0 .686-.092.964-.276a1.26 1.26 0 0 0 .54-.751zM53.474 32.3h3.385c-.019-.796-.19-1.325-.513-1.585-.324-.259-.672-.39-1.047-.39-.623 0-1.07.203-1.343.612-.27.41-.43.864-.482 1.363zM42.17 28.997h2.09l-.017.976h.047c.616-.855 1.414-1.283 2.395-1.283.99 0 1.735.302 2.236.903.502.604.816 1.227.945 1.87.129.64.192 1.183.192 1.624 0 .91-.148 1.695-.448 2.358-.297.663-.705 1.163-1.226 1.5-.519.337-1.1.505-1.746.505-.287 0-.57-.042-.849-.125a2.639 2.639 0 0 1-.781-.383 2.55 2.55 0 0 1-.618-.63v3.801h-2.22V28.997zm2.12 4.058c0 .83.146 1.495.435 2 .293.505.726.76 1.3.76.728 0 1.197-.313 1.41-.942a5.686 5.686 0 0 0 .316-1.818c0-.965-.17-1.662-.509-2.087-.34-.428-.747-.642-1.217-.642-.421 0-.815.195-1.183.583-.367.387-.552 1.104-.552 2.146zm-9.659-8.048h2.637l4.155 12.139H38.66l-.713-2.275H33.94l-.694 2.275h-2.747l4.133-12.14zm-.12 7.803h2.87l-1.424-4.633-1.447 4.633z"/>
        <path stroke="#FFF" stroke-linejoin="round" d="M13.955 23.963l-2.616-3.329 2.482-1.927.443.563-1.806 1.403.58.738 1.68-1.306.44.56-1.68 1.306.712.906 1.87-1.453.441.561-2.546 1.978zm1.092-6.084l1.44-.894c.286-.177.506-.298.662-.361a1.1 1.1 0 0 1 .468-.086c.158.006.312.049.465.128a.958.958 0 0 1 .373.35.99.99 0 0 1-.017 1.091c.259-.072.497-.07.71.01.215.08.387.224.517.431.102.163.164.344.184.546.02.201-.006.389-.08.563a1.217 1.217 0 0 1-.381.473c-.113.088-.4.278-.863.57l-1.226.761-2.252-3.582zm1.103.144l.52.828.477-.295c.284-.177.457-.29.521-.341a.56.56 0 0 0 .213-.31.443.443 0 0 0-.07-.347.466.466 0 0 0-.26-.213.496.496 0 0 0-.353.045 9.783 9.783 0 0 0-.63.374l-.418.26zm.896 1.425l.601.957.673-.418c.263-.163.425-.273.486-.331a.53.53 0 0 0 .174-.307.518.518 0 0 0-.089-.368.558.558 0 0 0-.25-.225.53.53 0 0 0-.33-.023c-.122.027-.348.145-.678.35l-.587.365zm4.157-.3l-1.795-3.828 1.247-.578c.472-.219.79-.342.951-.37.248-.045.492-.007.73.117.24.123.431.337.574.641.11.236.16.453.149.653-.011.2-.06.376-.15.53-.09.151-.196.274-.318.367a4.917 4.917 0 0 1-.781.43l-.507.234.678 1.444-.778.36zm-.714-3.54l.51 1.085.424-.197c.307-.142.503-.256.587-.344a.562.562 0 0 0 .155-.301.568.568 0 0 0-.052-.339.55.55 0 0 0-.285-.287.596.596 0 0 0-.392-.025 4.105 4.105 0 0 0-.571.234l-.376.174zm3.524-.147c-.155-.402-.225-.761-.21-1.08.014-.235.067-.463.161-.682a1.65 1.65 0 0 1 .376-.55c.207-.199.472-.359.795-.482.584-.223 1.121-.222 1.612.005.49.226.859.66 1.106 1.302.246.637.264 1.202.055 1.694-.21.492-.606.85-1.188 1.072-.59.225-1.128.225-1.614 0-.487-.225-.85-.651-1.093-1.279zm.815-.34c.172.445.407.744.703.896.297.15.604.165.924.043.319-.121.537-.335.653-.643.116-.306.086-.688-.09-1.145-.175-.452-.405-.75-.69-.898-.284-.146-.592-.156-.922-.03-.33.126-.553.34-.668.642-.115.302-.086.68.09 1.134zm3.445-3.5l3.232-.981 1.242 4.039-.82.249-1.034-3.361-1.591.483 1.034 3.362-.82.249-1.243-4.04zm5.515 2.708L32.76 10.23l3.056-.757.174.694-2.224.55.228.91 2.07-.514.172.69-2.07.513.28 1.115 2.303-.57.173.69-3.134.778zm3.366-5.136l.792-.138.49 2.769 1.205-3.066.841-.148.738 4.16-.79.138-.481-2.716-1.212 3.013-.845.148-.738-4.16zm1.986-1.415l.391-.069c.023.26-.032.48-.164.653-.134.175-.327.284-.58.328-.253.045-.472.008-.657-.111-.184-.118-.31-.305-.38-.557l.392-.07a.44.44 0 0 0 .196.28c.094.055.22.07.375.042.156-.027.269-.083.338-.166.07-.084.1-.193.09-.33zm5.707 2.962l.857.158c-.07.474-.238.84-.505 1.098-.266.257-.627.414-1.08.47-.559.067-1.043-.067-1.45-.402-.408-.337-.653-.835-.734-1.494-.086-.698.029-1.262.343-1.693.315-.43.767-.68 1.358-.753.516-.063.954.037 1.313.301.215.156.39.396.528.72l-.82.303a.888.888 0 0 0-.375-.477.904.904 0 0 0-.6-.118.967.967 0 0 0-.72.427c-.166.247-.219.62-.157 1.12.066.53.207.895.427 1.096.22.203.483.284.79.247a.86.86 0 0 0 .557-.286c.146-.163.235-.402.268-.717zm1.687-2.912l.855-.06.126 1.794c.19-.032.316-.09.378-.173.061-.083.15-.31.266-.677.145-.469.304-.765.475-.888.17-.124.452-.199.846-.226l.125-.012.044.629-.122.005c-.174.012-.301.043-.38.092a.486.486 0 0 0-.182.21 4.191 4.191 0 0 0-.184.56 2 2 0 0 1-.143.376.879.879 0 0 1-.304.298.89.89 0 0 1 .496.292c.135.154.288.376.457.661l.66 1.116-1.006.07-.583-1.054a8.247 8.247 0 0 1-.176-.277c-.124-.199-.224-.322-.298-.37-.073-.046-.183-.065-.328-.057l.13 1.845-.856.06-.296-4.214zm7.985 3.89h-.934l-.371-.96h-1.699l-.35.96h-.91l1.655-4.223h.907l1.702 4.223zm-1.58-1.67l-.586-1.568-.574 1.568h1.16zm4.824 1.67V9.955h-.175c-.27 0-.46.04-.572.121-.111.08-.301.322-.57.723l-.62.92h-1.025l.518-.825c.205-.326.368-.555.49-.687.121-.13.275-.249.458-.353-.396-.061-.682-.198-.858-.41a1.156 1.156 0 0 1-.264-.762c0-.258.065-.486.196-.685a.952.952 0 0 1 .516-.4c.213-.068.532-.102.958-.102h1.805v4.223h-.857zm0-3.508h-.67c-.34 0-.564.006-.671.022a.442.442 0 0 0-.277.156.507.507 0 0 0-.116.346c0 .147.038.265.112.353.074.087.17.141.284.162.115.022.35.032.702.032h.636V8.21zm2.941 3.685l1.64-2.07L61.212 7.7l.998.087.73 1.425.95-1.28.99.087-1.496 1.929 1.257 2.29-1.031-.09-.81-1.536-1.07 1.372-1.025-.089zM65.87 8.17l.797.097-.345 2.79 2.053-2.581.849.103-.518 4.192-.796-.097.338-2.737-2.045 2.529-.851-.104.518-4.192zm3.908 4.756l.883-4.131 1.256.265.151 2.978 1.348-2.661 1.259.266-.883 4.131-.78-.164.696-3.252-1.52 3.077-.809-.17-.127-3.426-.695 3.252-.78-.165zm6.11-2.952l.83.22-.263.974c-.085.316-.13.529-.134.638-.005.11.04.217.136.324.095.107.255.19.478.25.178.047.34.07.49.069.148-.002.282-.026.403-.073l.474-1.76.83.222-1.1 4.08-.83-.221.444-1.643c-.189.03-.37.043-.542.037a2.181 2.181 0 0 1-.494-.07c-.409-.11-.725-.296-.949-.562-.223-.265-.271-.635-.143-1.108l.37-1.377zm4.653 1.258l.76.26-.921 2.658 2.548-2.102.808.277-1.383 3.994-.759-.26.904-2.607-2.53 2.05-.81-.277 1.383-3.993zm5.926 5.178l.662.564c-.299.375-.628.608-.99.699-.36.09-.75.047-1.17-.13-.52-.219-.871-.576-1.055-1.069-.183-.494-.145-1.047.116-1.658.276-.648.66-1.079 1.148-1.295.49-.216 1.007-.21 1.555.022.479.202.807.506.986.914.108.24.138.536.095.885l-.862-.144a.883.883 0 0 0-.085-.6.898.898 0 0 0-.46-.4.97.97 0 0 0-.838.012c-.269.13-.502.427-.7.89-.21.492-.271.88-.181 1.163a.935.935 0 0 0 .559.606c.21.088.418.098.627.03.207-.07.405-.233.593-.489zm1.756 2.602l1.602-3.126-1.123-.569.327-.637 3.008 1.524-.326.637-1.12-.568-1.603 3.127-.765-.388zm4.791-2.203l.728.452-.958 1.524c.172.086.308.112.407.081.1-.031.305-.162.615-.393.395-.293.699-.44.91-.44.21-.001.483.103.819.312l.107.063-.336.534-.102-.066c-.148-.093-.269-.142-.36-.148a.488.488 0 0 0-.273.064c-.09.048-.25.163-.48.344-.122.096-.235.17-.338.221a.886.886 0 0 1-.422.064c.133.147.21.322.228.526a4.42 4.42 0 0 1-.021.802l-.126 1.288-.855-.531.152-1.193a8.415 8.415 0 0 1 .021-.327c.017-.234.01-.392-.022-.473-.032-.081-.11-.16-.232-.239l-.986 1.569-.727-.452 2.251-3.582zm4.007 8.08l-.736-.57.302-.984-1.338-1.04-.87.542-.718-.557 3.92-2.315.715.555-1.275 4.37zm-.21-2.283l.509-1.593-1.423.883.914.71z"/>
        <path fill="#D9222A" d="M13.955 23.963l-2.616-3.329 2.482-1.927.443.563-1.806 1.403.58.738 1.68-1.306.44.56-1.68 1.306.712.906 1.87-1.453.441.561-2.546 1.978zm1.092-6.084l1.44-.894c.286-.177.506-.298.662-.361a1.1 1.1 0 0 1 .468-.086c.158.006.312.049.465.128a.958.958 0 0 1 .373.35.99.99 0 0 1-.017 1.091c.259-.072.497-.07.71.01.215.08.387.224.517.431.102.163.164.344.184.546.02.201-.006.389-.08.563a1.217 1.217 0 0 1-.381.473c-.113.088-.4.278-.863.57l-1.226.761-2.252-3.582zm1.103.144l.52.828.477-.295c.284-.177.457-.29.521-.341a.56.56 0 0 0 .213-.31.443.443 0 0 0-.07-.347.466.466 0 0 0-.26-.213.496.496 0 0 0-.353.045 9.783 9.783 0 0 0-.63.374l-.418.26zm.896 1.425l.601.957.673-.418c.263-.163.425-.273.486-.331a.53.53 0 0 0 .174-.307.518.518 0 0 0-.089-.368.558.558 0 0 0-.25-.225.53.53 0 0 0-.33-.023c-.122.027-.348.145-.678.35l-.587.365zm4.157-.3l-1.795-3.828 1.247-.578c.472-.219.79-.342.951-.37.248-.045.492-.007.73.117.24.123.431.337.574.641.11.236.16.453.149.653-.011.2-.06.376-.15.53-.09.151-.196.274-.318.367a4.917 4.917 0 0 1-.781.43l-.507.234.678 1.444-.778.36zm-.714-3.54l.51 1.085.424-.197c.307-.142.503-.256.587-.344a.562.562 0 0 0 .155-.301.568.568 0 0 0-.052-.339.55.55 0 0 0-.285-.287.596.596 0 0 0-.392-.025 4.105 4.105 0 0 0-.571.234l-.376.174zm3.524-.147c-.155-.402-.225-.761-.21-1.08.014-.235.067-.463.161-.682a1.65 1.65 0 0 1 .376-.55c.207-.199.472-.359.795-.482.584-.223 1.121-.222 1.612.005.49.226.859.66 1.106 1.302.246.637.264 1.202.055 1.694-.21.492-.606.85-1.188 1.072-.59.225-1.128.225-1.614 0-.487-.225-.85-.651-1.093-1.279zm.815-.34c.172.445.407.744.703.896.297.15.604.165.924.043.319-.121.537-.335.653-.643.116-.306.086-.688-.09-1.145-.175-.452-.405-.75-.69-.898-.284-.146-.592-.156-.922-.03-.33.126-.553.34-.668.642-.115.302-.086.68.09 1.134zm3.445-3.5l3.232-.981 1.242 4.039-.82.249-1.034-3.361-1.591.483 1.034 3.362-.82.249-1.243-4.04zm5.515 2.708L32.76 10.23l3.056-.757.174.694-2.224.55.228.91 2.07-.514.172.69-2.07.513.28 1.115 2.303-.57.173.69-3.134.778zm3.366-5.136l.792-.138.49 2.769 1.205-3.066.841-.148.738 4.16-.79.138-.481-2.716-1.212 3.013-.845.148-.738-4.16zm1.986-1.415l.391-.069c.023.26-.032.48-.164.653-.134.175-.327.284-.58.328-.253.045-.472.008-.657-.111-.184-.118-.31-.305-.38-.557l.392-.07a.44.44 0 0 0 .196.28c.094.055.22.07.375.042.156-.027.269-.083.338-.166.07-.084.1-.193.09-.33zm5.707 2.962l.857.158c-.07.474-.238.84-.505 1.098-.266.257-.627.414-1.08.47-.559.067-1.043-.067-1.45-.402-.408-.337-.653-.835-.734-1.494-.086-.698.029-1.262.343-1.693.315-.43.767-.68 1.358-.753.516-.063.954.037 1.313.301.215.156.39.396.528.72l-.82.303a.888.888 0 0 0-.375-.477.904.904 0 0 0-.6-.118.967.967 0 0 0-.72.427c-.166.247-.219.62-.157 1.12.066.53.207.895.427 1.096.22.203.483.284.79.247a.86.86 0 0 0 .557-.286c.146-.163.235-.402.268-.717zm1.687-2.912l.855-.06.126 1.794c.19-.032.316-.09.378-.173.061-.083.15-.31.266-.677.145-.469.304-.765.475-.888.17-.124.452-.199.846-.226l.125-.012.044.629-.122.005c-.174.012-.301.043-.38.092a.486.486 0 0 0-.182.21 4.191 4.191 0 0 0-.184.56 2 2 0 0 1-.143.376.879.879 0 0 1-.304.298.89.89 0 0 1 .496.292c.135.154.288.376.457.661l.66 1.116-1.006.07-.583-1.054a8.247 8.247 0 0 1-.176-.277c-.124-.199-.224-.322-.298-.37-.073-.046-.183-.065-.328-.057l.13 1.845-.856.06-.296-4.214zm7.985 3.89h-.934l-.371-.96h-1.699l-.35.96h-.91l1.655-4.223h.907l1.702 4.223zm-1.58-1.67l-.586-1.568-.574 1.568h1.16zm4.824 1.67V9.955h-.175c-.27 0-.46.04-.572.121-.111.08-.301.322-.57.723l-.62.92h-1.025l.518-.825c.205-.326.368-.555.49-.687.121-.13.275-.249.458-.353-.396-.061-.682-.198-.858-.41a1.156 1.156 0 0 1-.264-.762c0-.258.065-.486.196-.685a.952.952 0 0 1 .516-.4c.213-.068.532-.102.958-.102h1.805v4.223h-.857zm0-3.508h-.67c-.34 0-.564.006-.671.022a.442.442 0 0 0-.277.156.507.507 0 0 0-.116.346c0 .147.038.265.112.353.074.087.17.141.284.162.115.022.35.032.702.032h.636V8.21zm2.941 3.685l1.64-2.07L61.212 7.7l.998.087.73 1.425.95-1.28.99.087-1.496 1.929 1.257 2.29-1.031-.09-.81-1.536-1.07 1.372-1.025-.089zM65.87 8.17l.797.097-.345 2.79 2.053-2.581.849.103-.518 4.192-.796-.097.338-2.737-2.045 2.529-.851-.104.518-4.192zm3.908 4.756l.883-4.131 1.256.265.151 2.978 1.348-2.661 1.259.266-.883 4.131-.78-.164.696-3.252-1.52 3.077-.809-.17-.127-3.426-.695 3.252-.78-.165zm6.11-2.952l.83.22-.263.974c-.085.316-.13.529-.134.638-.005.11.04.217.136.324.095.107.255.19.478.25.178.047.34.07.49.069.148-.002.282-.026.403-.073l.474-1.76.83.222-1.1 4.08-.83-.221.444-1.643c-.189.03-.37.043-.542.037a2.181 2.181 0 0 1-.494-.07c-.409-.11-.725-.296-.949-.562-.223-.265-.271-.635-.143-1.108l.37-1.377zm4.653 1.258l.76.26-.921 2.658 2.548-2.102.808.277-1.383 3.994-.759-.26.904-2.607-2.53 2.05-.81-.277 1.383-3.993zm5.926 5.178l.662.564c-.299.375-.628.608-.99.699-.36.09-.75.047-1.17-.13-.52-.219-.871-.576-1.055-1.069-.183-.494-.145-1.047.116-1.658.276-.648.66-1.079 1.148-1.295.49-.216 1.007-.21 1.555.022.479.202.807.506.986.914.108.24.138.536.095.885l-.862-.144a.883.883 0 0 0-.085-.6.898.898 0 0 0-.46-.4.97.97 0 0 0-.838.012c-.269.13-.502.427-.7.89-.21.492-.271.88-.181 1.163a.935.935 0 0 0 .559.606c.21.088.418.098.627.03.207-.07.405-.233.593-.489zm1.756 2.602l1.602-3.126-1.123-.569.327-.637 3.008 1.524-.326.637-1.12-.568-1.603 3.127-.765-.388zm4.791-2.203l.728.452-.958 1.524c.172.086.308.112.407.081.1-.031.305-.162.615-.393.395-.293.699-.44.91-.44.21-.001.483.103.819.312l.107.063-.336.534-.102-.066c-.148-.093-.269-.142-.36-.148a.488.488 0 0 0-.273.064c-.09.048-.25.163-.48.344-.122.096-.235.17-.338.221a.886.886 0 0 1-.422.064c.133.147.21.322.228.526a4.42 4.42 0 0 1-.021.802l-.126 1.288-.855-.531.152-1.193a8.415 8.415 0 0 1 .021-.327c.017-.234.01-.392-.022-.473-.032-.081-.11-.16-.232-.239l-.986 1.569-.727-.452 2.251-3.582zm4.007 8.08l-.736-.57.302-.984-1.338-1.04-.87.542-.718-.557 3.92-2.315.715.555-1.275 4.37zm-.21-2.283l.509-1.593-1.423.883.914.71z"/>
        <path stroke="#FFF" d="M54.92 3.115c28.66 0 51.896 12.485 51.896 27.886S83.58 58.888 54.92 58.888C26.258 58.888 3.023 46.402 3.023 31c0-15.4 23.235-27.886 51.897-27.886z"/>
    </g>
</svg>
