<svg xmlns="http://www.w3.org/2000/svg" width="22" height="21" viewBox="0 0 22 21">
    <path fill="#2F3031" fill-rule="evenodd" d="M11 10.839c-2.724 0-4.933-2.427-4.933-5.42C6.067 1.27 8.276 0 11 0c2.724 0 4.933 1.269 4.933 5.42 0 2.992-2.209 5.419-4.933 5.419zm10.892 7.977c.172.362.137.777-.094 1.11-.23.333-.62.531-1.043.531H1.245c-.423 0-.813-.198-1.043-.531a1.102 1.102 0 0 1-.094-1.11l2.488-5.263c.114-.24.314-.44.563-.562l3.862-1.887a.263.263 0 0 1 .265.021A6.381 6.381 0 0 0 11 12.31a6.38 6.38 0 0 0 3.714-1.185.262.262 0 0 1 .265-.021l3.862 1.887c.249.122.45.321.563.562l2.488 5.263z"/>
</svg>
