<svg xmlns="http://www.w3.org/2000/svg" width="33" height="19" viewBox="0 0 33 19">
    <path fill="#2F3031" fill-rule="nonzero" d="M32.115 4.769l.553.48L18.835 17.24c-.962.835-1.957 1.257-2.96 1.257-.078 0-.155-.004-.233-.008-1.506-.097-2.47-1.12-2.604-1.27L0 5.013l.575-.46 13.078 12.246c.007.009.823.938 2.054 1.015.842.052 1.71-.302 2.576-1.053L32.115 4.77zm-8.325.141a2.466 2.466 0 0 1-2.476-2.455A2.466 2.466 0 0 1 23.79 0c1.367 0 2.476 1.1 2.476 2.455A2.466 2.466 0 0 1 23.79 4.91zm-9.482 9.883c-3.22-2.858-6.438-5.717-9.66-8.574-1.136-1.009.54-2.659 1.67-1.655l1.388 1.232c.053-.009.105-.02.162-.02l5.371-.138c.529-.013.993.368 1.137.86.456 1.537.913 3.076 1.367 4.613l1.494-1.282a27.76 27.76 0 0 1-.965-3.506c-.145-.698.291-1.202.821-1.386l-1.433-2.43.012-.007-.054-.091.907-1.429 2.739 4.63-.401.37.044.076-.247.143c.15.662.322 1.318.517 1.967l2.007-1.723c1.005-.861 2.228-.647 3.028.013l3.245-2.878c1.13-1.003 2.807.646 1.67 1.655l-4.49 3.984a2.435 2.435 0 0 1-.305.313 17555.1 17555.1 0 0 1-6.612 5.674c-.74.635-1.601.685-2.322.403a1.134 1.134 0 0 1-.314-.15 2.578 2.578 0 0 1-.776-.664z"/>
</svg>
