ยง<svg xmlns="http://www.w3.org/2000/svg" width="11" height="18" viewBox="0 0 11 18">
    <path fill="#D07833" fill-opacity=".849" fill-rule="evenodd" d="M4.598 12.678c-1.42-.145-2.7-.489-3.797-1.33-.136-.106-.276-.207-.4-.324-.48-.453-.528-.971-.15-1.506.326-.457.871-.58 1.438-.317.11.05.215.115.315.183 2.043 1.378 4.849 1.417 6.9.061.204-.153.42-.278.672-.341.49-.124.946.053 1.209.474.3.48.295.95-.074 1.323-.567.571-1.25.985-2.007 1.275-.717.272-1.501.41-2.279.501.118.125.173.187.247.259 1.055 1.042 2.114 2.078 3.165 3.123.358.356.433.797.236 1.212-.216.452-.698.75-1.172.718-.3-.02-.533-.167-.742-.373-.796-.787-1.606-1.56-2.387-2.361-.226-.234-.336-.19-.535.013-.801.81-1.615 1.608-2.434 2.4-.367.356-.805.42-1.231.217-.454-.215-.742-.67-.72-1.126.015-.31.17-.546.386-.758 1.044-1.024 2.085-2.05 3.126-3.076.07-.068.134-.14.234-.247zm.865-3.567C2.93 9.103.853 7.04.867 4.545.881 2.024 2.96-.008 5.52 0c2.564.006 4.62 2.067 4.609 4.615-.013 2.488-2.105 4.504-4.665 4.496zm2.303-4.56c-.005-1.237-1.008-2.223-2.265-2.224-1.269-.002-2.28 1.002-2.27 2.251.008 1.233 1.02 2.213 2.281 2.208 1.257-.005 2.258-.997 2.254-2.234z"/>
</svg>
