<svg xmlns="http://www.w3.org/2000/svg" width="14" height="14" viewBox="0 0 14 14">
    <path fill="#DA291C" fill-rule="evenodd" d="M13.697 6.345c.275-.28.372-.692.253-1.074a1.009 1.009 0 0 0-.81-.713l-3.391-.515a.446.446 0 0 1-.333-.253L7.901.584a.997.997 0 0 0-.9-.584.997.997 0 0 0-.902.584L4.584 3.79a.448.448 0 0 1-.334.253l-3.39.515c-.381.057-.692.33-.81.713-.119.382-.021.794.254 1.074L2.757 8.84c.104.107.152.26.127.41l-.58 3.524c-.063.396.089.787.4 1.024a.962.962 0 0 0 1.057.08l3.033-1.664a.433.433 0 0 1 .413 0l3.03 1.665c.15.081.31.121.469.121a.976.976 0 0 0 .59-.202c.31-.237.464-.628.4-1.024l-.58-3.524a.47.47 0 0 1 .128-.409l2.453-2.496zm-3.133 3.004l.578 3.524a.466.466 0 0 1-.176.453.419.419 0 0 1-.467.034l-3.032-1.663a.971.971 0 0 0-.935 0l-3.03 1.663a.419.419 0 0 1-.467-.034.466.466 0 0 1-.177-.453l.58-3.524a1.078 1.078 0 0 0-.29-.928L.695 5.926a.47.47 0 0 1-.112-.474.441.441 0 0 1 .357-.316l3.39-.514c.328-.049.61-.263.757-.573L6.602.843a.434.434 0 0 1 .795 0L8.914 4.05a1 1 0 0 0 .756.573l3.389.514a.437.437 0 0 1 .357.316.469.469 0 0 1-.11.474l-2.454 2.495a1.076 1.076 0 0 0-.288.928z"/>
</svg>
