<svg xmlns="http://www.w3.org/2000/svg" width="14" height="14" viewBox="0 0 14 14">
    <path fill="#DA291C" fill-rule="evenodd" d="M13.697 6.345c.275-.28.372-.692.253-1.074a1.009 1.009 0 0 0-.81-.713l-3.391-.515a.446.446 0 0 1-.333-.253L7.901.584a.997.997 0 0 0-.9-.584.997.997 0 0 0-.902.584L4.584 3.79a.448.448 0 0 1-.334.253l-3.39.515c-.381.057-.692.33-.81.713-.119.382-.021.794.254 1.074L2.757 8.84c.104.107.152.26.127.41l-.58 3.524c-.063.396.089.787.4 1.024a.962.962 0 0 0 1.057.08l3.033-1.664a.433.433 0 0 1 .413 0l3.03 1.665c.15.081.31.121.469.121a.976.976 0 0 0 .59-.202c.31-.237.464-.628.4-1.024l-.58-3.524a.47.47 0 0 1 .128-.409l2.453-2.496z"/>
</svg>
