<svg xmlns="http://www.w3.org/2000/svg" width="25" height="26" viewBox="0 0 25 26">
    <path fill="#2F3031" fill-rule="nonzero" d="M14.417 15.83a1.54 1.54 0 0 1-1.244.637c-.41 0-.795-.161-1.085-.453a1.547 1.547 0 0 1 .182-2.34l5.58-4.059a.43.43 0 0 1 .558.045c.15.151.168.389.045.56l-4.036 5.61zm8.532-7.352a11.668 11.668 0 0 1 1.55 5.822c0 2.119-.566 4.106-1.55 5.822-.005.01-.005.019-.01.028-.007.013-.017.022-.026.034a11.754 11.754 0 0 1-4.212 4.23c-.008.005-.013.013-.022.019-.013.007-.027.01-.04.017a11.516 11.516 0 0 1-5.698 1.548l-.01.002-.008-.002-.062.002c-.872 0-1.751-.1-2.611-.3a.433.433 0 0 1 .192-.844c.68.156 1.37.243 2.059.267v-.856a.432.432 0 1 1 .862 0v.852a10.648 10.648 0 0 0 4.507-1.232l-.425-.74a.434.434 0 0 1 .158-.592c.205-.12.469-.05.588.159l.424.738a10.889 10.889 0 0 0 3.35-3.368l-.734-.426a.435.435 0 0 1-.158-.592.429.429 0 0 1 .59-.159l.735.427a10.8 10.8 0 0 0 1.228-4.601h-.851a.432.432 0 0 1-.431-.433c0-.24.192-.434.43-.434h.852a10.8 10.8 0 0 0-1.228-4.601l-.736.427a.43.43 0 0 1-.589-.159.435.435 0 0 1 .157-.592l.734-.426a10.889 10.889 0 0 0-3.35-3.367l-.424.738a.43.43 0 1 1-.746-.433l.425-.74a10.648 10.648 0 0 0-4.507-1.233v.853a.432.432 0 1 1-.862 0v-.856a14.93 14.93 0 0 0-.4.024l-.426.033c-.413.046-.825.116-1.233.21a.433.433 0 0 1-.193-.845c.46-.105.924-.182 1.39-.231v-.501h-.647a1.081 1.081 0 0 1-1.077-1.084C9.914.486 10.397 0 10.99 0h3.88c.594 0 1.078.486 1.078 1.083 0 .598-.483 1.084-1.077 1.084h-.647v.516c1.597.188 3.094.703 4.428 1.475.009.005.018.004.027.01.009.005.014.013.022.018.748.439 1.442.957 2.073 1.546l.925-.93-.61-.613L22.92 2.35l1.828 1.839-1.828 1.838-.61-.613-.925.93c.585.634 1.1 1.333 1.537 2.084.005.009.013.013.019.022.004.01.004.019.009.028zM9.052 5.633c.476 0 .862.389.862.867a.865.865 0 0 1-.862.867H6.897a.865.865 0 0 1-.863-.867c0-.478.387-.867.863-.867h2.155zm0 3.034c.476 0 .862.388.862.866a.865.865 0 0 1-.862.867h-4.31a.865.865 0 0 1-.863-.867c0-.478.387-.866.862-.866h4.31zm0 3.033c.476 0 .862.388.862.867a.865.865 0 0 1-.862.866H2.586a.865.865 0 0 1-.862-.866c0-.479.386-.867.862-.867h6.466zm0 3.033c.476 0 .862.389.862.867a.865.865 0 0 1-.862.867H.862A.865.865 0 0 1 0 15.6c0-.478.386-.867.862-.867h8.19zm0 3.034c.476 0 .862.388.862.866a.865.865 0 0 1-.862.867H3.448a.865.865 0 0 1-.862-.867c0-.478.386-.866.862-.866h5.604zm0 3.033c.476 0 .862.388.862.867a.865.865 0 0 1-.862.866H6.034a.865.865 0 0 1-.862-.866c0-.479.387-.867.862-.867h3.018z"/>
</svg>
