<svg xmlns="http://www.w3.org/2000/svg" width="22" height="20" viewBox="0 0 22 20">
    <path fill="#ffffff" fill-rule="evenodd" d="M20.996 5.664h-3.513c-.554 0-1.003.421-1.003.942v.885h-2.72v-.885c0-.52-.45-.942-1.004-.942H9.243c-.554 0-1.003.421-1.003.942v.885H5.52v-.885c0-.52-.45-.942-1.004-.942H1.004C.449 5.664 0 6.085 0 6.606v1.828c0 .52.45.942 1.004.942h.05l.918 9.039c.049.483.481.853.999.853h16.058c.517 0 .95-.37 1-.853l.916-9.04h.051c.555 0 1.004-.421 1.004-.941V6.606c0-.52-.45-.942-1.004-.942zM7.99 15.734c0 .521-.45.943-1.004.943s-1.003-.422-1.003-.942V11.59c0-.52.449-.942 1.003-.942.555 0 1.004.421 1.004.942v4.145zm4.014 0c0 .521-.449.943-1.003.943-.554 0-1.004-.422-1.004-.942V11.59c0-.52.45-.942 1.004-.942s1.003.421 1.003.942v4.145zm4.015 0c0 .521-.45.943-1.004.943s-1.003-.422-1.003-.942V11.59c0-.52.45-.942 1.003-.942.555 0 1.004.421 1.004.942v4.145zM3.188.308L7.59 4.84a.902.902 0 0 1-.065 1.33 1.038 1.038 0 0 1-.676.247c-.272 0-.544-.104-.742-.308L1.704 1.577A.902.902 0 0 1 1.77.247a1.05 1.05 0 0 1 1.418.06zM20.23.247c.41.35.438.946.065 1.33l-4.404 4.531c-.198.204-.47.308-.742.308-.242 0-.484-.082-.676-.246a.902.902 0 0 1-.065-1.331L18.813.307a1.05 1.05 0 0 1 1.418-.06z"/>
</svg>
