<svg xmlns="http://www.w3.org/2000/svg" width="38" height="21" viewBox="0 0 38 21">
    <path fill="#009ACE" fill-rule="evenodd" d="M32.704 13.353c1.26 1.202 2.591 2.332 3.722 3.656.5.587.972 1.194 1.334 1.876.512.97.048 2.037-.843 2.096l-5.535-.003c-1.428.116-2.567-.446-3.525-1.399-.766-.762-1.477-1.574-2.213-2.362-.302-.322-.619-.625-.997-.865-.755-.479-1.411-.332-1.843.437-.44.783-.54 1.65-.583 2.523-.06 1.273-.453 1.607-1.762 1.666-2.8.129-5.455-.285-7.922-1.663-2.175-1.216-3.862-2.932-5.33-4.874C4.348 10.66 2.16 6.503.192 2.231-.251 1.268.073.75 1.161.733 2.966.699 4.772.7 6.58.73c.733.011 1.22.422 1.503 1.1.977 2.346 2.172 4.578 3.673 6.647.4.55.807 1.101 1.388 1.49.642.429 1.13.286 1.432-.412.192-.443.276-.92.32-1.394.142-1.632.16-3.26-.09-4.887-.154-1.015-.74-1.671-1.776-1.864-.53-.097-.45-.29-.194-.585C13.281.317 13.7 0 14.534 0h6.257c.985.19 1.204.622 1.339 1.59l.005 6.786c-.01.375.191 1.487.883 1.735.553.176.917-.256 1.249-.598 1.498-1.553 2.567-3.388 3.522-5.287.424-.836.789-1.704 1.142-2.57.262-.644.672-.96 1.414-.946l6.022.005c.178 0 .359.002.531.031 1.015.17 1.293.596.98 1.563-.494 1.518-1.454 2.783-2.394 4.054-1.004 1.357-2.078 2.668-3.074 4.033-.915 1.246-.842 1.874.294 2.957z"/>
</svg>
